<mxfile host="app.diagrams.net" agent="Mozilla/5.0 (Windows NT 10.0; Win64; x64) AppleWebKit/537.36 (KHTML, like Gecko) Chrome/131.0.0.0 Safari/537.36" version="26.0.4">
  <diagram name="第 1 页" id="3Qes5rVlJUNfzLmKB2Mt">
    <mxGraphModel dx="1436" dy="931" grid="0" gridSize="10" guides="1" tooltips="1" connect="1" arrows="1" fold="1" page="0" pageScale="1" pageWidth="827" pageHeight="1169" math="0" shadow="0">
      <root>
        <mxCell id="0" />
        <mxCell id="1" parent="0" />
        <mxCell id="-NAwhlw-cG3gBcsxiPQz-4" value="" style="edgeStyle=orthogonalEdgeStyle;rounded=0;orthogonalLoop=1;jettySize=auto;html=1;" parent="1" target="-NAwhlw-cG3gBcsxiPQz-3" edge="1">
          <mxGeometry relative="1" as="geometry">
            <mxPoint x="115" y="160" as="sourcePoint" />
          </mxGeometry>
        </mxCell>
        <mxCell id="-NAwhlw-cG3gBcsxiPQz-2" value="CAE工作就是這樣, 大部分就是在做浪費時間的事情, 無限循環,完全取決於機構圖檔的乾淨度, 品質度 , 機構的圖越不好, 下面的流程所需要的時間越多, 這流程不管是在緯創還是Google, 我相信都是相同的.!&amp;nbsp;&lt;div&gt;&lt;br&gt;&lt;/div&gt;&lt;div&gt;無法100%要求機構按照CAE的格式, 因為他們有自己的考量&lt;/div&gt;&lt;div&gt;這中間的Gap , 就是CAE工程的工作 , 要把ME的圖檔順利轉換成可以分析的過程&lt;/div&gt;&lt;div&gt;&lt;br&gt;&lt;/div&gt;&lt;div&gt;看起來在簡單的案子 , 開模後的案子, R角都很可怕&lt;/div&gt;&lt;div&gt;也可能都會有以下的流程, 不可以太早舒服和大意&lt;/div&gt;&lt;div&gt;每一份工作都是如此 , 銀行, 公務員....&lt;/div&gt;&lt;div&gt;&lt;br&gt;&lt;/div&gt;&lt;div&gt;自己的額外study&lt;/div&gt;" style="text;html=1;align=left;verticalAlign=middle;whiteSpace=wrap;rounded=0;fontSize=16;strokeColor=default;" parent="1" vertex="1">
          <mxGeometry x="228" y="-246" width="719" height="247" as="geometry" />
        </mxCell>
        <mxCell id="-NAwhlw-cG3gBcsxiPQz-6" value="" style="edgeStyle=orthogonalEdgeStyle;rounded=0;orthogonalLoop=1;jettySize=auto;html=1;" parent="1" source="-NAwhlw-cG3gBcsxiPQz-3" target="-NAwhlw-cG3gBcsxiPQz-5" edge="1">
          <mxGeometry relative="1" as="geometry" />
        </mxCell>
        <mxCell id="-NAwhlw-cG3gBcsxiPQz-3" value="&lt;div&gt;處理螺絲,Nut&lt;/div&gt;&lt;div&gt;拿零件R角&amp;nbsp;&lt;/div&gt;" style="rounded=0;whiteSpace=wrap;html=1;fillColor=#fff2cc;strokeColor=#d6b656;" parent="1" vertex="1">
          <mxGeometry x="55" y="200" width="120" height="60" as="geometry" />
        </mxCell>
        <mxCell id="-NAwhlw-cG3gBcsxiPQz-8" value="" style="edgeStyle=orthogonalEdgeStyle;rounded=0;orthogonalLoop=1;jettySize=auto;html=1;" parent="1" source="-NAwhlw-cG3gBcsxiPQz-5" target="-NAwhlw-cG3gBcsxiPQz-7" edge="1">
          <mxGeometry relative="1" as="geometry" />
        </mxCell>
        <mxCell id="-NAwhlw-cG3gBcsxiPQz-5" value="&lt;div&gt;匯出.stp &amp;amp; .xt&lt;/div&gt;匯入圖檔 to Abaqus" style="rounded=0;whiteSpace=wrap;html=1;" parent="1" vertex="1">
          <mxGeometry x="55" y="300" width="120" height="60" as="geometry" />
        </mxCell>
        <mxCell id="-NAwhlw-cG3gBcsxiPQz-10" value="" style="edgeStyle=orthogonalEdgeStyle;rounded=0;orthogonalLoop=1;jettySize=auto;html=1;" parent="1" source="-NAwhlw-cG3gBcsxiPQz-7" target="-NAwhlw-cG3gBcsxiPQz-9" edge="1">
          <mxGeometry relative="1" as="geometry" />
        </mxCell>
        <mxCell id="-NAwhlw-cG3gBcsxiPQz-17" value="No" style="edgeLabel;html=1;align=center;verticalAlign=middle;resizable=0;points=[];" parent="-NAwhlw-cG3gBcsxiPQz-10" vertex="1" connectable="0">
          <mxGeometry x="-0.1418" relative="1" as="geometry">
            <mxPoint as="offset" />
          </mxGeometry>
        </mxCell>
        <mxCell id="-NAwhlw-cG3gBcsxiPQz-12" value="" style="edgeStyle=orthogonalEdgeStyle;rounded=0;orthogonalLoop=1;jettySize=auto;html=1;" parent="1" source="-NAwhlw-cG3gBcsxiPQz-7" target="-NAwhlw-cG3gBcsxiPQz-11" edge="1">
          <mxGeometry relative="1" as="geometry" />
        </mxCell>
        <mxCell id="-NAwhlw-cG3gBcsxiPQz-15" value="Yes" style="edgeLabel;html=1;align=center;verticalAlign=middle;resizable=0;points=[];" parent="-NAwhlw-cG3gBcsxiPQz-12" vertex="1" connectable="0">
          <mxGeometry x="-0.096" y="1" relative="1" as="geometry">
            <mxPoint as="offset" />
          </mxGeometry>
        </mxCell>
        <mxCell id="-NAwhlw-cG3gBcsxiPQz-7" value="圖檔爆掉&lt;div&gt;幾千個零件&lt;/div&gt;" style="rhombus;whiteSpace=wrap;html=1;rounded=0;fillColor=#f8cecc;strokeColor=#b85450;" parent="1" vertex="1">
          <mxGeometry x="205" y="290" width="80" height="80" as="geometry" />
        </mxCell>
        <mxCell id="1L4MWceTh6y_2CvtbCoj-56" value="" style="edgeStyle=orthogonalEdgeStyle;rounded=0;orthogonalLoop=1;jettySize=auto;html=1;" parent="1" source="-NAwhlw-cG3gBcsxiPQz-9" target="1L4MWceTh6y_2CvtbCoj-55" edge="1">
          <mxGeometry relative="1" as="geometry" />
        </mxCell>
        <mxCell id="-NAwhlw-cG3gBcsxiPQz-9" value="合併零件&lt;div&gt;suppress&amp;nbsp;&lt;/div&gt;&lt;div&gt;不重要零件&lt;/div&gt;" style="whiteSpace=wrap;html=1;rounded=0;fillColor=#d5e8d4;strokeColor=#82b366;" parent="1" vertex="1">
          <mxGeometry x="338" y="300" width="84.25" height="60" as="geometry" />
        </mxCell>
        <mxCell id="-NAwhlw-cG3gBcsxiPQz-13" style="edgeStyle=orthogonalEdgeStyle;rounded=0;orthogonalLoop=1;jettySize=auto;html=1;entryX=0.5;entryY=1;entryDx=0;entryDy=0;" parent="1" source="-NAwhlw-cG3gBcsxiPQz-11" target="-NAwhlw-cG3gBcsxiPQz-5" edge="1">
          <mxGeometry relative="1" as="geometry" />
        </mxCell>
        <mxCell id="-NAwhlw-cG3gBcsxiPQz-11" value="&lt;div&gt;&lt;br&gt;&lt;/div&gt;把曲面關掉 或是 隱藏某些檔案&lt;div&gt;&lt;br&gt;&lt;/div&gt;" style="whiteSpace=wrap;html=1;rounded=0;" parent="1" vertex="1">
          <mxGeometry x="185" y="420" width="120" height="60" as="geometry" />
        </mxCell>
        <mxCell id="-NAwhlw-cG3gBcsxiPQz-22" value="" style="edgeStyle=orthogonalEdgeStyle;rounded=0;orthogonalLoop=1;jettySize=auto;html=1;" parent="1" source="-NAwhlw-cG3gBcsxiPQz-18" target="-NAwhlw-cG3gBcsxiPQz-21" edge="1">
          <mxGeometry relative="1" as="geometry" />
        </mxCell>
        <mxCell id="-NAwhlw-cG3gBcsxiPQz-18" value="打開ProeE" style="rounded=0;whiteSpace=wrap;html=1;" parent="1" vertex="1">
          <mxGeometry x="55" width="120" height="60" as="geometry" />
        </mxCell>
        <mxCell id="-NAwhlw-cG3gBcsxiPQz-25" value="" style="edgeStyle=orthogonalEdgeStyle;rounded=0;orthogonalLoop=1;jettySize=auto;html=1;" parent="1" source="-NAwhlw-cG3gBcsxiPQz-21" target="-NAwhlw-cG3gBcsxiPQz-24" edge="1">
          <mxGeometry relative="1" as="geometry" />
        </mxCell>
        <mxCell id="-NAwhlw-cG3gBcsxiPQz-29" value="Yes" style="edgeLabel;html=1;align=center;verticalAlign=middle;resizable=0;points=[];" parent="-NAwhlw-cG3gBcsxiPQz-25" vertex="1" connectable="0">
          <mxGeometry x="-0.1133" y="-1" relative="1" as="geometry">
            <mxPoint as="offset" />
          </mxGeometry>
        </mxCell>
        <mxCell id="-NAwhlw-cG3gBcsxiPQz-21" value="檢查干涉&lt;div&gt;圖檔凌亂&lt;/div&gt;" style="rhombus;whiteSpace=wrap;html=1;rounded=0;fillColor=#dae8fc;strokeColor=#6c8ebf;" parent="1" vertex="1">
          <mxGeometry x="75" y="90" width="80" height="80" as="geometry" />
        </mxCell>
        <mxCell id="-NAwhlw-cG3gBcsxiPQz-26" style="edgeStyle=orthogonalEdgeStyle;rounded=0;orthogonalLoop=1;jettySize=auto;html=1;exitX=0.5;exitY=0;exitDx=0;exitDy=0;entryX=1;entryY=0.5;entryDx=0;entryDy=0;" parent="1" source="-NAwhlw-cG3gBcsxiPQz-24" target="-NAwhlw-cG3gBcsxiPQz-18" edge="1">
          <mxGeometry relative="1" as="geometry" />
        </mxCell>
        <mxCell id="-NAwhlw-cG3gBcsxiPQz-24" value="&lt;div&gt;擷取工具, 截圖整理PPT&lt;/div&gt;請機構重新整理" style="whiteSpace=wrap;html=1;rounded=0;" parent="1" vertex="1">
          <mxGeometry x="215" y="100" width="140" height="60" as="geometry" />
        </mxCell>
        <mxCell id="-NAwhlw-cG3gBcsxiPQz-28" value="" style="edgeStyle=orthogonalEdgeStyle;rounded=0;orthogonalLoop=1;jettySize=auto;html=1;" parent="1" source="-NAwhlw-cG3gBcsxiPQz-27" target="-NAwhlw-cG3gBcsxiPQz-18" edge="1">
          <mxGeometry relative="1" as="geometry" />
        </mxCell>
        <mxCell id="-NAwhlw-cG3gBcsxiPQz-27" value="討論分析條件" style="rounded=0;whiteSpace=wrap;html=1;" parent="1" vertex="1">
          <mxGeometry x="55" y="-90" width="120" height="60" as="geometry" />
        </mxCell>
        <mxCell id="kd_xp62n2o6V_G3wPQXQ-2" value="" style="edgeStyle=orthogonalEdgeStyle;rounded=0;orthogonalLoop=1;jettySize=auto;html=1;" parent="1" source="-NAwhlw-cG3gBcsxiPQz-30" target="kd_xp62n2o6V_G3wPQXQ-1" edge="1">
          <mxGeometry relative="1" as="geometry" />
        </mxCell>
        <mxCell id="-NAwhlw-cG3gBcsxiPQz-30" value="幾何簡化&lt;div&gt;程式建立Mesh&lt;/div&gt;" style="rounded=0;whiteSpace=wrap;html=1;fillColor=#dae8fc;strokeColor=#6c8ebf;" parent="1" vertex="1">
          <mxGeometry x="562" y="482" width="120" height="60" as="geometry" />
        </mxCell>
        <mxCell id="1L4MWceTh6y_2CvtbCoj-46" style="edgeStyle=orthogonalEdgeStyle;rounded=0;orthogonalLoop=1;jettySize=auto;html=1;exitX=1;exitY=0.5;exitDx=0;exitDy=0;" parent="1" source="-NAwhlw-cG3gBcsxiPQz-31" target="-NAwhlw-cG3gBcsxiPQz-33" edge="1">
          <mxGeometry relative="1" as="geometry">
            <Array as="points">
              <mxPoint x="785" y="598" />
              <mxPoint x="785" y="648" />
              <mxPoint x="547" y="648" />
            </Array>
          </mxGeometry>
        </mxCell>
        <mxCell id="-NAwhlw-cG3gBcsxiPQz-31" value="改instance名子-&amp;gt;&lt;div&gt;Partname, 名子不能太長, Tie會error&lt;/div&gt;" style="rounded=0;whiteSpace=wrap;html=1;fillColor=#d5e8d4;strokeColor=#82b366;" parent="1" vertex="1">
          <mxGeometry x="645" y="568" width="120" height="60" as="geometry" />
        </mxCell>
        <mxCell id="-NAwhlw-cG3gBcsxiPQz-53" style="edgeStyle=orthogonalEdgeStyle;rounded=0;orthogonalLoop=1;jettySize=auto;html=1;exitX=0.5;exitY=1;exitDx=0;exitDy=0;entryX=0.5;entryY=0;entryDx=0;entryDy=0;" parent="1" target="-NAwhlw-cG3gBcsxiPQz-42" edge="1">
          <mxGeometry relative="1" as="geometry">
            <mxPoint x="622" y="370" as="sourcePoint" />
          </mxGeometry>
        </mxCell>
        <mxCell id="-NAwhlw-cG3gBcsxiPQz-36" value="" style="edgeStyle=orthogonalEdgeStyle;rounded=0;orthogonalLoop=1;jettySize=auto;html=1;" parent="1" source="-NAwhlw-cG3gBcsxiPQz-33" target="-NAwhlw-cG3gBcsxiPQz-35" edge="1">
          <mxGeometry relative="1" as="geometry" />
        </mxCell>
        <mxCell id="-NAwhlw-cG3gBcsxiPQz-33" value="材料定義&lt;div&gt;constraint , Tie&lt;/div&gt;&lt;div&gt;調整Tie Gap&lt;/div&gt;" style="rounded=0;whiteSpace=wrap;html=1;fillColor=#fff2cc;strokeColor=#d6b656;" parent="1" vertex="1">
          <mxGeometry x="487" y="662" width="120" height="60" as="geometry" />
        </mxCell>
        <mxCell id="-NAwhlw-cG3gBcsxiPQz-57" style="edgeStyle=orthogonalEdgeStyle;rounded=0;orthogonalLoop=1;jettySize=auto;html=1;exitX=0.5;exitY=1;exitDx=0;exitDy=0;entryX=0.5;entryY=1;entryDx=0;entryDy=0;" parent="1" source="-NAwhlw-cG3gBcsxiPQz-35" target="-NAwhlw-cG3gBcsxiPQz-33" edge="1">
          <mxGeometry relative="1" as="geometry" />
        </mxCell>
        <mxCell id="-NAwhlw-cG3gBcsxiPQz-59" value="" style="edgeStyle=orthogonalEdgeStyle;rounded=0;orthogonalLoop=1;jettySize=auto;html=1;" parent="1" source="-NAwhlw-cG3gBcsxiPQz-35" target="-NAwhlw-cG3gBcsxiPQz-58" edge="1">
          <mxGeometry relative="1" as="geometry" />
        </mxCell>
        <mxCell id="-NAwhlw-cG3gBcsxiPQz-79" style="edgeStyle=orthogonalEdgeStyle;rounded=0;orthogonalLoop=1;jettySize=auto;html=1;exitX=1;exitY=0.5;exitDx=0;exitDy=0;entryX=0;entryY=0.5;entryDx=0;entryDy=0;" parent="1" source="-NAwhlw-cG3gBcsxiPQz-35" target="-NAwhlw-cG3gBcsxiPQz-78" edge="1">
          <mxGeometry relative="1" as="geometry">
            <Array as="points">
              <mxPoint x="748" y="692" />
              <mxPoint x="748" y="815" />
            </Array>
          </mxGeometry>
        </mxCell>
        <mxCell id="-NAwhlw-cG3gBcsxiPQz-35" value="Datacheck" style="rhombus;whiteSpace=wrap;html=1;rounded=0;fillColor=#e1d5e7;strokeColor=#9673a6;" parent="1" vertex="1">
          <mxGeometry x="652" y="652" width="80" height="80" as="geometry" />
        </mxCell>
        <mxCell id="-NAwhlw-cG3gBcsxiPQz-68" style="edgeStyle=orthogonalEdgeStyle;rounded=0;orthogonalLoop=1;jettySize=auto;html=1;exitX=0.5;exitY=1;exitDx=0;exitDy=0;entryX=0.5;entryY=0;entryDx=0;entryDy=0;" parent="1" source="-NAwhlw-cG3gBcsxiPQz-42" target="-NAwhlw-cG3gBcsxiPQz-30" edge="1">
          <mxGeometry relative="1" as="geometry" />
        </mxCell>
        <mxCell id="-NAwhlw-cG3gBcsxiPQz-42" value="&lt;div&gt;Peoe, Abaqus 切頗面&lt;/div&gt;&lt;div&gt;修除硬殼干涉&lt;/div&gt;去除軟材干涉" style="rounded=0;whiteSpace=wrap;html=1;fillColor=#fff2cc;strokeColor=#d6b656;" parent="1" vertex="1">
          <mxGeometry x="550.5" y="399" width="143" height="60" as="geometry" />
        </mxCell>
        <mxCell id="-NAwhlw-cG3gBcsxiPQz-61" value="" style="edgeStyle=orthogonalEdgeStyle;rounded=0;orthogonalLoop=1;jettySize=auto;html=1;" parent="1" source="-NAwhlw-cG3gBcsxiPQz-58" target="-NAwhlw-cG3gBcsxiPQz-60" edge="1">
          <mxGeometry relative="1" as="geometry" />
        </mxCell>
        <mxCell id="-NAwhlw-cG3gBcsxiPQz-58" value="Run Drop Analysis test" style="whiteSpace=wrap;html=1;rounded=0;fillColor=#dae8fc;strokeColor=#6c8ebf;" parent="1" vertex="1">
          <mxGeometry x="765" y="662" width="85" height="60" as="geometry" />
        </mxCell>
        <mxCell id="-NAwhlw-cG3gBcsxiPQz-63" value="" style="edgeStyle=orthogonalEdgeStyle;rounded=0;orthogonalLoop=1;jettySize=auto;html=1;" parent="1" source="-NAwhlw-cG3gBcsxiPQz-60" target="-NAwhlw-cG3gBcsxiPQz-62" edge="1">
          <mxGeometry relative="1" as="geometry" />
        </mxCell>
        <mxCell id="-NAwhlw-cG3gBcsxiPQz-65" value="" style="edgeStyle=orthogonalEdgeStyle;rounded=0;orthogonalLoop=1;jettySize=auto;html=1;" parent="1" source="-NAwhlw-cG3gBcsxiPQz-60" target="-NAwhlw-cG3gBcsxiPQz-64" edge="1">
          <mxGeometry relative="1" as="geometry" />
        </mxCell>
        <mxCell id="-NAwhlw-cG3gBcsxiPQz-60" value="檢查變形&lt;div&gt;質量&lt;/div&gt;&lt;div&gt;材料&lt;/div&gt;" style="rhombus;whiteSpace=wrap;html=1;rounded=0;fillColor=#ffe6cc;strokeColor=#d79b00;" parent="1" vertex="1">
          <mxGeometry x="893.75" y="647" width="102.5" height="90" as="geometry" />
        </mxCell>
        <mxCell id="uja6GSqQwrFna-BWHkGb-6" value="" style="edgeStyle=orthogonalEdgeStyle;rounded=0;orthogonalLoop=1;jettySize=auto;html=1;" parent="1" source="-NAwhlw-cG3gBcsxiPQz-62" target="uja6GSqQwrFna-BWHkGb-5" edge="1">
          <mxGeometry relative="1" as="geometry" />
        </mxCell>
        <mxCell id="-NAwhlw-cG3gBcsxiPQz-62" value="&lt;div&gt;&lt;span style=&quot;background-color: transparent; color: light-dark(rgb(0, 0, 0), rgb(255, 255, 255));&quot;&gt;Run Analysis&amp;nbsp;&lt;/span&gt;&lt;/div&gt;" style="whiteSpace=wrap;html=1;rounded=0;fillColor=#e1d5e7;strokeColor=#9673a6;" parent="1" vertex="1">
          <mxGeometry x="1035" y="662" width="120" height="60" as="geometry" />
        </mxCell>
        <mxCell id="-NAwhlw-cG3gBcsxiPQz-66" style="edgeStyle=orthogonalEdgeStyle;rounded=0;orthogonalLoop=1;jettySize=auto;html=1;entryX=0.5;entryY=0;entryDx=0;entryDy=0;" parent="1" source="-NAwhlw-cG3gBcsxiPQz-64" target="-NAwhlw-cG3gBcsxiPQz-58" edge="1">
          <mxGeometry relative="1" as="geometry" />
        </mxCell>
        <mxCell id="-NAwhlw-cG3gBcsxiPQz-64" value="進行設定調整&lt;div&gt;材料, constraint, ..&lt;/div&gt;" style="whiteSpace=wrap;html=1;rounded=0;fillColor=#d5e8d4;strokeColor=#82b366;" parent="1" vertex="1">
          <mxGeometry x="885" y="552" width="120" height="60" as="geometry" />
        </mxCell>
        <mxCell id="-NAwhlw-cG3gBcsxiPQz-73" value="" style="edgeStyle=orthogonalEdgeStyle;rounded=0;orthogonalLoop=1;jettySize=auto;html=1;" parent="1" source="-NAwhlw-cG3gBcsxiPQz-71" target="-NAwhlw-cG3gBcsxiPQz-42" edge="1">
          <mxGeometry relative="1" as="geometry" />
        </mxCell>
        <mxCell id="-NAwhlw-cG3gBcsxiPQz-75" value="" style="edgeStyle=orthogonalEdgeStyle;rounded=0;orthogonalLoop=1;jettySize=auto;html=1;" parent="1" source="-NAwhlw-cG3gBcsxiPQz-71" target="-NAwhlw-cG3gBcsxiPQz-74" edge="1">
          <mxGeometry relative="1" as="geometry" />
        </mxCell>
        <mxCell id="-NAwhlw-cG3gBcsxiPQz-71" value="Error零件&lt;div&gt;顯示異常&lt;/div&gt;" style="rhombus;whiteSpace=wrap;html=1;rounded=0;fillColor=#f8cecc;strokeColor=#b85450;" parent="1" vertex="1">
          <mxGeometry x="582" y="290" width="80" height="80" as="geometry" />
        </mxCell>
        <mxCell id="1L4MWceTh6y_2CvtbCoj-2" value="" style="edgeStyle=orthogonalEdgeStyle;rounded=0;orthogonalLoop=1;jettySize=auto;html=1;" parent="1" source="-NAwhlw-cG3gBcsxiPQz-74" target="1L4MWceTh6y_2CvtbCoj-1" edge="1">
          <mxGeometry relative="1" as="geometry" />
        </mxCell>
        <mxCell id="1L4MWceTh6y_2CvtbCoj-6" style="edgeStyle=orthogonalEdgeStyle;rounded=0;orthogonalLoop=1;jettySize=auto;html=1;exitX=0.5;exitY=1;exitDx=0;exitDy=0;entryX=1;entryY=0.5;entryDx=0;entryDy=0;" parent="1" source="-NAwhlw-cG3gBcsxiPQz-74" target="-NAwhlw-cG3gBcsxiPQz-30" edge="1">
          <mxGeometry relative="1" as="geometry" />
        </mxCell>
        <mxCell id="-NAwhlw-cG3gBcsxiPQz-74" value="abaqus修整幾何&lt;div&gt;從Proe換格式匯出&lt;/div&gt;&lt;div&gt;單開.prt檔案匯出&lt;/div&gt;" style="whiteSpace=wrap;html=1;rounded=0;fillColor=#dae8fc;strokeColor=#6c8ebf;" parent="1" vertex="1">
          <mxGeometry x="710.5" y="300" width="120" height="60" as="geometry" />
        </mxCell>
        <mxCell id="-NAwhlw-cG3gBcsxiPQz-83" value="" style="edgeStyle=orthogonalEdgeStyle;rounded=0;orthogonalLoop=1;jettySize=auto;html=1;" parent="1" source="-NAwhlw-cG3gBcsxiPQz-78" target="-NAwhlw-cG3gBcsxiPQz-82" edge="1">
          <mxGeometry relative="1" as="geometry" />
        </mxCell>
        <mxCell id="-NAwhlw-cG3gBcsxiPQz-78" value="Run static Analysis" style="whiteSpace=wrap;html=1;rounded=0;fillColor=#dae8fc;strokeColor=#6c8ebf;" parent="1" vertex="1">
          <mxGeometry x="783" y="785" width="85" height="60" as="geometry" />
        </mxCell>
        <mxCell id="-NAwhlw-cG3gBcsxiPQz-86" style="edgeStyle=orthogonalEdgeStyle;rounded=0;orthogonalLoop=1;jettySize=auto;html=1;exitX=1;exitY=0.5;exitDx=0;exitDy=0;entryX=0.5;entryY=1;entryDx=0;entryDy=0;" parent="1" source="-NAwhlw-cG3gBcsxiPQz-82" target="-NAwhlw-cG3gBcsxiPQz-62" edge="1">
          <mxGeometry relative="1" as="geometry" />
        </mxCell>
        <mxCell id="-NAwhlw-cG3gBcsxiPQz-88" value="" style="edgeStyle=orthogonalEdgeStyle;rounded=0;orthogonalLoop=1;jettySize=auto;html=1;" parent="1" source="-NAwhlw-cG3gBcsxiPQz-82" target="-NAwhlw-cG3gBcsxiPQz-87" edge="1">
          <mxGeometry relative="1" as="geometry" />
        </mxCell>
        <mxCell id="-NAwhlw-cG3gBcsxiPQz-82" value="收斂" style="rhombus;whiteSpace=wrap;html=1;rounded=0;" parent="1" vertex="1">
          <mxGeometry x="903" y="775" width="80" height="80" as="geometry" />
        </mxCell>
        <mxCell id="-NAwhlw-cG3gBcsxiPQz-90" style="edgeStyle=orthogonalEdgeStyle;rounded=0;orthogonalLoop=1;jettySize=auto;html=1;entryX=0.5;entryY=1;entryDx=0;entryDy=0;" parent="1" source="-NAwhlw-cG3gBcsxiPQz-87" target="-NAwhlw-cG3gBcsxiPQz-78" edge="1">
          <mxGeometry relative="1" as="geometry" />
        </mxCell>
        <mxCell id="-NAwhlw-cG3gBcsxiPQz-92" value="" style="edgeStyle=orthogonalEdgeStyle;rounded=0;orthogonalLoop=1;jettySize=auto;html=1;" parent="1" source="-NAwhlw-cG3gBcsxiPQz-87" target="-NAwhlw-cG3gBcsxiPQz-91" edge="1">
          <mxGeometry relative="1" as="geometry" />
        </mxCell>
        <mxCell id="-NAwhlw-cG3gBcsxiPQz-87" value="接觸調整&lt;div&gt;網格調整, ex加密&lt;/div&gt;&lt;div&gt;網格不能干涉&lt;/div&gt;&lt;div&gt;收斂參數增加&lt;/div&gt;" style="whiteSpace=wrap;html=1;rounded=0;" parent="1" vertex="1">
          <mxGeometry x="883" y="896" width="119" height="83" as="geometry" />
        </mxCell>
        <mxCell id="-NAwhlw-cG3gBcsxiPQz-91" value="改跑準靜態" style="rounded=0;whiteSpace=wrap;html=1;" parent="1" vertex="1">
          <mxGeometry x="1035" y="907.5" width="120" height="60" as="geometry" />
        </mxCell>
        <mxCell id="1L4MWceTh6y_2CvtbCoj-3" style="edgeStyle=orthogonalEdgeStyle;rounded=0;orthogonalLoop=1;jettySize=auto;html=1;exitX=0;exitY=0.5;exitDx=0;exitDy=0;entryX=0.5;entryY=0;entryDx=0;entryDy=0;" parent="1" source="1L4MWceTh6y_2CvtbCoj-1" target="-NAwhlw-cG3gBcsxiPQz-71" edge="1">
          <mxGeometry relative="1" as="geometry" />
        </mxCell>
        <mxCell id="1L4MWceTh6y_2CvtbCoj-5" value="" style="edgeStyle=orthogonalEdgeStyle;rounded=0;orthogonalLoop=1;jettySize=auto;html=1;" parent="1" source="1L4MWceTh6y_2CvtbCoj-1" target="1L4MWceTh6y_2CvtbCoj-4" edge="1">
          <mxGeometry relative="1" as="geometry" />
        </mxCell>
        <mxCell id="1L4MWceTh6y_2CvtbCoj-1" value="嘗試建立2D mesh , 然後用Query Mesh intersction檢查自體干涉,&amp;nbsp;&lt;div&gt;&lt;font style=&quot;color: rgb(204, 0, 0);&quot;&gt;檢查Face&amp;lt;0.01, repair 那種反白的細面&lt;/font&gt;&lt;/div&gt;" style="whiteSpace=wrap;html=1;fillColor=#dae8fc;strokeColor=#6c8ebf;rounded=0;" parent="1" vertex="1">
          <mxGeometry x="664" y="195" width="213" height="60" as="geometry" />
        </mxCell>
        <mxCell id="1L4MWceTh6y_2CvtbCoj-9" style="edgeStyle=orthogonalEdgeStyle;rounded=0;orthogonalLoop=1;jettySize=auto;html=1;exitX=0.5;exitY=1;exitDx=0;exitDy=0;entryX=1;entryY=0.5;entryDx=0;entryDy=0;" parent="1" source="1L4MWceTh6y_2CvtbCoj-4" target="-NAwhlw-cG3gBcsxiPQz-30" edge="1">
          <mxGeometry relative="1" as="geometry" />
        </mxCell>
        <mxCell id="1L4MWceTh6y_2CvtbCoj-4" value="修整幾何, copy part feature, 防止程式crash" style="whiteSpace=wrap;html=1;fillColor=#dae8fc;strokeColor=#6c8ebf;rounded=0;" parent="1" vertex="1">
          <mxGeometry x="925" y="195" width="108" height="60" as="geometry" />
        </mxCell>
        <mxCell id="1L4MWceTh6y_2CvtbCoj-19" style="edgeStyle=orthogonalEdgeStyle;rounded=0;orthogonalLoop=1;jettySize=auto;html=1;exitX=0;exitY=0.5;exitDx=0;exitDy=0;" parent="1" source="1L4MWceTh6y_2CvtbCoj-12" target="1L4MWceTh6y_2CvtbCoj-18" edge="1">
          <mxGeometry relative="1" as="geometry" />
        </mxCell>
        <mxCell id="kd_xp62n2o6V_G3wPQXQ-4" value="Failure" style="edgeLabel;html=1;align=center;verticalAlign=middle;resizable=0;points=[];fontSize=15;" parent="1L4MWceTh6y_2CvtbCoj-19" vertex="1" connectable="0">
          <mxGeometry x="0.0882" y="2" relative="1" as="geometry">
            <mxPoint as="offset" />
          </mxGeometry>
        </mxCell>
        <mxCell id="1L4MWceTh6y_2CvtbCoj-50" value="" style="edgeStyle=orthogonalEdgeStyle;rounded=0;orthogonalLoop=1;jettySize=auto;html=1;" parent="1" source="1L4MWceTh6y_2CvtbCoj-12" target="1L4MWceTh6y_2CvtbCoj-49" edge="1">
          <mxGeometry relative="1" as="geometry" />
        </mxCell>
        <mxCell id="uja6GSqQwrFna-BWHkGb-4" value="Sucessful" style="edgeLabel;html=1;align=center;verticalAlign=middle;resizable=0;points=[];fontSize=15;" parent="1L4MWceTh6y_2CvtbCoj-50" vertex="1" connectable="0">
          <mxGeometry x="-0.2795" y="-3" relative="1" as="geometry">
            <mxPoint as="offset" />
          </mxGeometry>
        </mxCell>
        <mxCell id="1L4MWceTh6y_2CvtbCoj-12" value="自動調mesh" style="rhombus;whiteSpace=wrap;html=1;rounded=0;fillColor=#ffe6cc;strokeColor=#d79b00;" parent="1" vertex="1">
          <mxGeometry x="294" y="472" width="80" height="80" as="geometry" />
        </mxCell>
        <mxCell id="1L4MWceTh6y_2CvtbCoj-18" value="&lt;div&gt;mesh 脫離幾何&lt;/div&gt;用abaqus 內建 collaspe 0.1 元素&lt;div&gt;自動mesh標準流程&lt;/div&gt;&lt;div&gt;2D -&amp;gt; 3D -&amp;gt; 2D 消除 error mesh&lt;/div&gt;" style="rounded=0;whiteSpace=wrap;html=1;fillColor=#dae8fc;strokeColor=#6c8ebf;align=left;" parent="1" vertex="1">
          <mxGeometry x="129" y="779" width="184" height="60" as="geometry" />
        </mxCell>
        <mxCell id="1L4MWceTh6y_2CvtbCoj-38" style="edgeStyle=orthogonalEdgeStyle;rounded=0;orthogonalLoop=1;jettySize=auto;html=1;exitX=1;exitY=0.5;exitDx=0;exitDy=0;entryX=0;entryY=0.5;entryDx=0;entryDy=0;" parent="1" source="1L4MWceTh6y_2CvtbCoj-34" target="-NAwhlw-cG3gBcsxiPQz-31" edge="1">
          <mxGeometry relative="1" as="geometry" />
        </mxCell>
        <mxCell id="1L4MWceTh6y_2CvtbCoj-43" value="Yes" style="edgeLabel;html=1;align=center;verticalAlign=middle;resizable=0;points=[];" parent="1L4MWceTh6y_2CvtbCoj-38" vertex="1" connectable="0">
          <mxGeometry x="-0.1707" y="1" relative="1" as="geometry">
            <mxPoint as="offset" />
          </mxGeometry>
        </mxCell>
        <mxCell id="uja6GSqQwrFna-BWHkGb-1" style="edgeStyle=orthogonalEdgeStyle;rounded=0;orthogonalLoop=1;jettySize=auto;html=1;exitX=0.5;exitY=0;exitDx=0;exitDy=0;entryX=0.5;entryY=1;entryDx=0;entryDy=0;" parent="1" source="1L4MWceTh6y_2CvtbCoj-34" target="1L4MWceTh6y_2CvtbCoj-55" edge="1">
          <mxGeometry relative="1" as="geometry" />
        </mxCell>
        <mxCell id="1L4MWceTh6y_2CvtbCoj-34" value="完成所有零件mesh" style="rhombus;whiteSpace=wrap;html=1;rounded=0;fontSize=12;fillColor=#fff2cc;strokeColor=#d6b656;" parent="1" vertex="1">
          <mxGeometry x="480" y="549" width="102" height="94" as="geometry" />
        </mxCell>
        <mxCell id="1L4MWceTh6y_2CvtbCoj-51" style="edgeStyle=orthogonalEdgeStyle;rounded=0;orthogonalLoop=1;jettySize=auto;html=1;exitX=1;exitY=0.5;exitDx=0;exitDy=0;entryX=0;entryY=0.5;entryDx=0;entryDy=0;" parent="1" source="1L4MWceTh6y_2CvtbCoj-49" target="1L4MWceTh6y_2CvtbCoj-34" edge="1">
          <mxGeometry relative="1" as="geometry" />
        </mxCell>
        <mxCell id="1L4MWceTh6y_2CvtbCoj-53" style="edgeStyle=orthogonalEdgeStyle;rounded=0;orthogonalLoop=1;jettySize=auto;html=1;exitX=0.5;exitY=1;exitDx=0;exitDy=0;entryX=1;entryY=0.5;entryDx=0;entryDy=0;" parent="1" source="1L4MWceTh6y_2CvtbCoj-49" target="1L4MWceTh6y_2CvtbCoj-18" edge="1">
          <mxGeometry relative="1" as="geometry" />
        </mxCell>
        <mxCell id="1L4MWceTh6y_2CvtbCoj-49" value="幾何原生mesh,&amp;nbsp;&lt;div&gt;重疊比較差異&lt;/div&gt;" style="rhombus;whiteSpace=wrap;html=1;fillColor=#d5e8d4;strokeColor=#82b366;" parent="1" vertex="1">
          <mxGeometry x="277.75" y="643.5" width="112.5" height="97" as="geometry" />
        </mxCell>
        <mxCell id="1L4MWceTh6y_2CvtbCoj-57" style="edgeStyle=orthogonalEdgeStyle;rounded=0;orthogonalLoop=1;jettySize=auto;html=1;exitX=1;exitY=0.5;exitDx=0;exitDy=0;" parent="1" source="1L4MWceTh6y_2CvtbCoj-55" target="-NAwhlw-cG3gBcsxiPQz-71" edge="1">
          <mxGeometry relative="1" as="geometry" />
        </mxCell>
        <mxCell id="1L4MWceTh6y_2CvtbCoj-55" value="大體積零件開始處理" style="rounded=0;whiteSpace=wrap;html=1;fillColor=#f5f5f5;fontColor=#333333;strokeColor=#666666;" parent="1" vertex="1">
          <mxGeometry x="467" y="301.5" width="69.75" height="57" as="geometry" />
        </mxCell>
        <mxCell id="uja6GSqQwrFna-BWHkGb-5" value="等待時間&lt;div&gt;準備報告templete&lt;/div&gt;" style="whiteSpace=wrap;html=1;fillColor=#e1d5e7;strokeColor=#9673a6;rounded=0;" parent="1" vertex="1">
          <mxGeometry x="1214" y="662" width="120" height="60" as="geometry" />
        </mxCell>
        <mxCell id="kd_xp62n2o6V_G3wPQXQ-3" value="" style="edgeStyle=orthogonalEdgeStyle;rounded=0;orthogonalLoop=1;jettySize=auto;html=1;" parent="1" source="kd_xp62n2o6V_G3wPQXQ-1" target="1L4MWceTh6y_2CvtbCoj-12" edge="1">
          <mxGeometry relative="1" as="geometry" />
        </mxCell>
        <mxCell id="kd_xp62n2o6V_G3wPQXQ-1" value="使用程式&lt;div&gt;辨識 移除 seed 特徵&lt;div&gt;R角/C角/園孔/小邊..&lt;/div&gt;&lt;/div&gt;" style="rounded=0;whiteSpace=wrap;html=1;fillColor=#fff2cc;strokeColor=#d6b656;align=center;" parent="1" vertex="1">
          <mxGeometry x="405" y="487.75" width="111" height="48.5" as="geometry" />
        </mxCell>
        <mxCell id="bjWpNslP9fqNFomSuvw7-1" value="開啟程式包含" style="text;html=1;align=center;verticalAlign=middle;whiteSpace=wrap;rounded=0;" vertex="1" parent="1">
          <mxGeometry x="-96" y="409" width="134" height="50" as="geometry" />
        </mxCell>
      </root>
    </mxGraphModel>
  </diagram>
</mxfile>
